<svg width="120" height="81" viewBox="0 0 120 81" fill="none" xmlns="http://www.w3.org/2000/svg">
<path d="M115.941 12.6383L90.3682 1.38081C86.715 -0.227406 80.6507 -0.461344 76.8952 0.839851L4.86826 25.855C1.09814 27.1562 -0.903825 31.3083 0.396721 35.0803L14.5858 75.9729C15.8864 79.7303 20.0364 81.7479 23.8066 80.4467L95.8334 55.4316C99.6036 54.1304 104.207 50.1829 106.077 46.6595L119.185 21.966C121.055 18.4425 119.594 14.2465 115.955 12.6529L115.941 12.6383ZM106.457 28.1649C103.008 29.3638 99.2236 27.5363 98.0254 24.0713C96.8271 20.6063 98.6537 16.8343 102.102 15.6355C105.551 14.4366 109.336 16.2641 110.534 19.7145C111.732 23.1795 109.906 26.9515 106.442 28.1503L106.457 28.1649Z" fill="#D1D1D1"/>
<path d="M41.31 43.9836C37.3821 45.3687 34.6908 43.9394 33.236 39.7253C33.0469 39.1654 32.8723 38.576 32.7414 37.9277L32.0285 34.8629C31.3884 32.1223 31.4321 29.8826 32.1595 28.1144C32.8868 26.3463 34.4144 25.0496 36.7565 24.2392C39.0987 23.4141 40.9463 23.5025 42.3138 24.475C43.3612 25.2265 44.1904 26.4936 44.8014 28.2765C44.976 28.807 45.1506 29.3669 45.296 29.971L46.0671 33.3894C46.6926 36.0859 46.6344 38.3108 45.9071 40.0937C45.1797 41.8766 43.6522 43.1585 41.3391 43.9836H41.31ZM40.4953 40.4178C41.179 40.1673 41.6737 39.7548 41.9646 39.1507C42.2556 38.5465 42.3865 37.8982 42.3429 37.2352C42.3138 36.5574 42.1828 35.7617 41.9646 34.8481L41.179 31.3855C41.0336 30.8256 40.8881 30.3099 40.7281 29.8384C40.6408 29.6174 40.5535 29.3964 40.4808 29.1753C40.2334 28.5417 39.8698 28.0997 39.3751 27.8345C38.8805 27.5693 38.284 27.5692 37.5858 27.8197C37.0475 28.0113 36.6256 28.2765 36.3346 28.6154C36.0291 28.969 35.8546 29.3816 35.7964 29.8973C35.7382 30.413 35.7237 30.914 35.7964 31.415C35.8546 31.916 35.9564 32.5201 36.1164 33.2126L36.902 36.6752C37.0475 37.2352 37.193 37.7509 37.353 38.2224C37.4257 38.4581 37.513 38.6792 37.5858 38.9149C37.8331 39.5632 38.2259 40.0347 38.735 40.3294C39.2442 40.6241 39.8407 40.6536 40.5244 40.4178H40.4953ZM49.2385 60.0001L50.5332 19.6715L54.4029 18.3159L53.1373 58.6298L49.253 60.0001H49.2385ZM66.8267 54.0768C62.8988 55.4619 60.1929 54.0179 58.7381 49.7448C58.5636 49.2144 58.389 48.6397 58.2435 48.0209L57.5452 44.9414C56.9051 42.2007 56.9488 39.9611 57.6762 38.1929C58.4036 36.4248 59.9456 35.1281 62.2732 34.303C64.6154 33.4778 66.463 33.5662 67.8159 34.5682C68.8488 35.3197 69.6635 36.5574 70.2745 38.2813C70.4636 38.8265 70.6236 39.4159 70.7691 40.0495L71.5692 43.4826C72.8494 48.9786 71.2783 52.5149 66.8412 54.0768H66.8267ZM66.012 50.511C66.6958 50.2606 67.1904 49.848 67.4813 49.2439C67.7723 48.6397 67.9032 47.9914 67.8596 47.3284C67.8305 46.6506 67.6995 45.8549 67.4813 44.9414L66.6812 41.4787C66.5357 40.8746 66.3757 40.3294 66.2157 39.8432C66.1429 39.6369 66.0702 39.4453 65.9974 39.2685C65.7501 38.6349 65.3864 38.1929 64.9064 37.9277C64.4263 37.6625 63.8298 37.6625 63.117 37.9129C62.5787 38.1045 62.1714 38.3697 61.8659 38.7086C61.5604 39.0475 61.3858 39.4896 61.3131 39.9905C61.2404 40.5062 61.2404 41.0072 61.284 41.5082C61.3422 42.0092 61.444 42.6133 61.6041 43.3058L62.3896 46.7684C62.5351 47.2841 62.6806 47.7557 62.8261 48.1977C62.9133 48.4629 63.0152 48.7282 63.1025 48.9934C63.3498 49.6417 63.7426 50.1132 64.2372 50.4079C64.7464 50.7173 65.3283 50.7468 66.012 50.511Z" fill="white"/>
</svg>
