<svg width="225" height="225" viewBox="0 0 225 225" fill="none" xmlns="http://www.w3.org/2000/svg">
<path d="M18.6942 80.9045L34.721 122.139C37.0106 128.03 43.5382 135.081 49.1997 137.829L157.847 190.463C163.524 193.227 170.414 190.819 173.181 185.14L203.078 123.472C205.829 117.809 203.441 110.904 197.764 108.139L89.1167 55.5057C83.4389 52.7416 73.8659 52.0075 67.827 53.8582L25.5053 66.8294C19.4663 68.6801 16.4046 75.0139 18.6942 80.8718L18.6942 80.9045ZM46.6954 74.139C51.8987 76.6579 54.09 82.9413 51.5522 88.1622C49.0144 93.3831 42.7463 95.5611 37.543 93.0422C32.3397 90.5234 30.1484 84.24 32.6699 79.0355C35.2077 73.8146 41.4758 71.6366 46.6954 74.1717L46.6954 74.139Z" fill="#E4CDEC"/>
<path d="M137.344 129.367C143.292 132.214 144.705 136.827 141.616 143.174C141.2 144.012 140.736 144.868 140.157 145.74L137.524 149.97C135.172 153.755 132.615 156.213 129.822 157.378C127.028 158.544 123.866 158.285 120.336 156.57C116.79 154.872 114.82 152.704 114.378 150.085C114.047 148.071 114.537 145.723 115.849 143.043C116.248 142.254 116.679 141.432 117.193 140.592L120.157 135.902C122.475 132.183 125.031 129.757 127.842 128.575C130.652 127.393 133.798 127.668 137.311 129.334L137.344 129.367ZM134.264 134.271C133.218 133.786 132.202 133.694 131.2 134.045C130.198 134.395 129.325 134.975 128.632 135.766C127.905 136.557 127.161 137.595 126.383 138.862L123.386 143.618C122.922 144.408 122.507 145.148 122.158 145.855C122.009 146.2 121.859 146.545 121.693 146.874C121.26 147.861 121.173 148.763 121.429 149.613C121.686 150.464 122.354 151.132 123.416 151.633C124.233 152.021 125.003 152.197 125.708 152.143C126.446 152.089 127.103 151.823 127.746 151.311C128.388 150.798 128.965 150.254 129.445 149.611C129.941 148.985 130.503 148.195 131.099 147.24L134.096 142.484C134.56 141.694 134.975 140.954 135.324 140.247C135.506 139.902 135.656 139.557 135.838 139.211C136.287 138.208 136.375 137.241 136.135 136.341C135.895 135.441 135.26 134.74 134.231 134.239L134.264 134.271ZM146.399 102.558L99.7979 146.26L93.9477 143.445L140.5 99.7275L146.383 102.542L146.399 102.558ZM120.076 89.4985C126.024 92.3454 127.437 96.9915 124.281 103.404C123.883 104.194 123.435 105.032 122.905 105.888L120.239 110.118C117.887 113.903 115.331 116.361 112.537 117.527C109.743 118.692 106.565 118.417 103.035 116.735C99.4891 115.036 97.5195 112.869 97.1266 110.233C96.8115 108.235 97.2851 105.937 98.5312 103.323C98.9298 102.501 99.4105 101.662 99.957 100.789L102.905 96.0499C107.625 88.4633 113.343 86.2632 120.059 89.4822L120.076 89.4985ZM116.996 94.4027C115.95 93.9177 114.934 93.8258 113.932 94.1764C112.93 94.527 112.057 95.1063 111.364 95.8975C110.638 96.6889 109.893 97.7264 109.115 98.9935L106.134 103.766C105.62 104.605 105.189 105.395 104.824 106.118C104.674 106.431 104.541 106.727 104.425 107.006C103.992 107.992 103.905 108.894 104.145 109.729C104.386 110.563 105.054 111.231 106.132 111.749C106.949 112.137 107.702 112.296 108.424 112.258C109.145 112.221 109.835 111.922 110.478 111.442C111.137 110.946 111.698 110.385 112.21 109.776C112.705 109.15 113.268 108.359 113.864 107.405L116.861 102.648C117.276 101.908 117.641 101.217 117.973 100.56C118.172 100.165 118.355 99.754 118.554 99.3594C119.003 98.3566 119.091 97.389 118.867 96.5053C118.644 95.5888 118.025 94.9043 116.996 94.4027Z" fill="white"/>
</svg>
