<svg width="102" height="100" viewBox="0 0 102 100" fill="none" xmlns="http://www.w3.org/2000/svg">
<path d="M49.5211 17.1173L38.59 26.9731C37.0285 28.3811 35.6081 31.2443 35.4243 33.3297L31.9269 73.3385C31.7399 75.4309 33.3058 77.2894 35.4011 77.4791L58.1355 79.4923C60.2238 79.6788 62.0895 78.1206 62.2765 76.0281L65.7739 36.0194C65.9609 33.9269 65.0543 30.8629 63.7625 29.2033L54.7085 17.5729C53.4166 15.9133 51.0827 15.7093 49.5313 17.1134L49.5211 17.1173ZM54.9462 25.0269C54.7793 26.9428 53.0838 28.3666 51.1583 28.194C49.2328 28.0215 47.8119 26.3293 47.9788 24.4135C48.1458 22.4976 49.8412 21.0738 51.7597 21.2432C53.6852 21.4157 55.1061 23.1079 54.936 25.0308L54.9462 25.0269Z" fill="#B4A4CC"/>
<path d="M48.4336 59.7237C48.2444 61.936 46.966 62.9363 44.6127 62.7309C44.3009 62.7015 43.9781 62.6588 43.6363 62.5819L42.0003 62.2645C40.5367 61.9819 39.4644 61.4752 38.7693 60.7377C38.0742 60.0003 37.7816 58.9757 37.9019 57.6598C38.0151 56.3408 38.4615 55.4606 39.23 55.0058C39.8218 54.6588 40.615 54.5299 41.6097 54.6189C41.904 54.649 42.2126 54.6854 42.5362 54.7455L44.3558 55.1113C45.7949 55.3914 46.8569 55.902 47.5591 56.6426C48.2613 57.3832 48.5468 58.4047 48.4399 59.7096L48.4336 59.7237ZM46.5333 59.3473C46.5617 58.9601 46.4705 58.6299 46.2422 58.3573C46.014 58.0847 45.7295 57.8804 45.3997 57.7579C45.0659 57.6251 44.653 57.5164 44.1641 57.4246L42.3199 57.0563C42.0177 57.0057 41.7368 56.9647 41.4741 56.9404C41.3483 56.935 41.2225 56.9296 41.0998 56.917C40.7397 56.9001 40.4468 56.9813 40.2106 57.1646C39.9744 57.3478 39.8441 57.6382 39.8125 58.0324C39.7874 58.336 39.8234 58.5988 39.9235 58.8139C40.0275 59.0393 40.1887 59.2137 40.4251 59.3539C40.6614 59.494 40.9002 59.6097 41.1581 59.6829C41.4128 59.7632 41.7269 59.8446 42.0963 59.9168L43.9405 60.2851C44.2427 60.3356 44.5236 60.3766 44.7863 60.4009C44.916 60.4166 45.0419 60.4221 45.1716 60.4378C45.5388 60.4579 45.8524 60.369 46.106 60.185C46.3596 60.001 46.5041 59.7171 46.5396 59.3331L46.5333 59.3473ZM57.9021 59.3365L38.7057 49.9633L38.8964 47.7857L58.092 57.1416L57.9052 59.3295L57.9021 59.3365ZM58.8838 49.4907C58.6946 51.703 57.406 52.7072 55.0242 52.4889C54.7298 52.4589 54.4141 52.4193 54.0834 52.356L52.4434 52.0283C50.9798 51.7457 49.9075 51.2389 49.2124 50.5015C48.5173 49.7641 48.2279 48.7324 48.3379 47.4204C48.4511 46.1014 48.8975 45.2212 49.677 44.7798C50.2657 44.4399 51.0415 44.3117 52.0077 44.388C52.3123 44.4141 52.632 44.464 52.9698 44.5305L54.8029 44.8853C57.7372 45.4537 59.102 46.9851 58.887 49.4836L58.8838 49.4907ZM56.9835 49.1142C57.0119 48.7271 56.9207 48.3969 56.6925 48.1243C56.4642 47.8517 56.1797 47.6474 55.8499 47.5249C55.5162 47.3921 55.1032 47.2833 54.6143 47.1915L52.767 46.8303C52.4434 46.7702 52.1451 46.7299 51.8753 46.7024C51.7598 46.693 51.6513 46.6869 51.55 46.684C51.19 46.667 50.897 46.7483 50.664 46.9244C50.431 47.1006 50.3007 47.391 50.2659 47.7923C50.2409 48.0958 50.28 48.3516 50.3769 48.5738C50.4739 48.796 50.6492 48.9768 50.8753 49.1208C51.1085 49.268 51.3505 49.3766 51.602 49.464C51.8567 49.5443 52.1707 49.6257 52.5402 49.6979L54.3843 50.0662C54.6652 50.1072 54.9247 50.1386 55.17 50.1636C55.3172 50.1786 55.4676 50.1865 55.6148 50.2015C55.9819 50.2217 56.2955 50.1327 56.5459 49.9558C56.8066 49.7751 56.948 49.4982 56.9835 49.1142Z" fill="white"/>
</svg>
