<svg width="152" height="137" viewBox="0 0 152 137" fill="none" xmlns="http://www.w3.org/2000/svg">
<g opacity="0.4">
<path d="M112.485 13.6634L83.287 16.592C79.1159 17.0103 73.4536 19.9334 70.6961 23.0667L17.8414 83.2148C15.0706 86.3557 15.3922 91.1904 18.5345 93.9689L52.6824 124.044C55.8171 126.809 60.6542 126.509 63.425 123.368L116.28 63.2197C119.05 60.0788 121.212 54.0858 121.095 49.8944L120.281 20.5198C120.165 16.3283 116.656 13.2451 112.506 13.6693L112.485 13.6634ZM111.862 32.7759C109.332 35.6568 104.927 35.9425 102.037 33.392C99.1477 30.8415 98.8628 26.4454 101.393 23.5644C103.923 20.6835 108.328 20.3978 111.21 22.9349C114.1 25.4854 114.385 29.8816 111.841 32.7701L111.862 32.7759Z" fill="#F39200"/>
<path d="M60.4347 80.8298C57.5188 84.1607 54.284 84.2584 50.7458 81.1499C50.2795 80.7347 49.8114 80.2849 49.353 79.758L47.0993 77.3164C45.0815 75.1344 43.9572 73.0543 43.711 71.0489C43.4649 69.0435 44.2047 67.0519 45.9515 65.0799C47.6906 63.0944 49.4469 62.2073 51.2186 62.3839C52.579 62.5252 54.0057 63.2546 55.4985 64.572C55.9359 64.9678 56.3887 65.3906 56.8375 65.8693L59.3291 68.6052C61.3104 70.7542 62.4136 72.8284 62.6674 74.8473C62.9212 76.8662 62.1738 78.8443 60.4616 80.8146L60.4347 80.8298ZM57.8261 77.9814C58.3288 77.393 58.5722 76.7548 58.5274 76.0474C58.4825 75.3399 58.2666 74.6758 57.8814 74.0896C57.502 73.4823 56.967 72.82 56.2899 72.0953L53.7619 69.3264C53.3361 68.8883 52.9332 68.4908 52.5398 68.1416C52.3441 67.9843 52.1484 67.827 51.9661 67.6621C51.4076 67.2098 50.8411 66.9943 50.2453 67.01C49.6495 67.0256 49.0973 67.3382 48.5811 67.9342C48.1824 68.3923 47.9298 68.857 47.8367 69.3208C47.7378 69.8058 47.7907 70.2762 48.0051 70.7804C48.2194 71.2846 48.4664 71.7524 48.7943 72.1745C49.1087 72.6042 49.5171 73.1057 50.0254 73.658L52.5534 76.4269C52.9792 76.865 53.3821 77.2624 53.7755 77.6117C53.9654 77.7901 54.1611 77.9474 54.3511 78.1258C54.9172 78.5917 55.526 78.819 56.1506 78.8228C56.7752 78.8266 57.3427 78.5411 57.8531 77.9662L57.8261 77.9814ZM76.1037 91.3866L56.3296 53.6637L59.207 50.3904L79.0003 88.0845L76.1171 91.379L76.1037 91.3866ZM89.3053 76.7276C86.3894 80.0585 83.1335 80.1502 79.5646 76.9876C79.1272 76.5919 78.6667 76.1555 78.2102 75.6633L75.9623 73.2006C73.9445 71.0186 72.8202 68.9385 72.574 66.9331C72.3279 64.9277 73.0811 62.9285 74.8068 60.9506C76.5459 58.9651 78.3022 58.078 80.0757 58.2893C81.4227 58.4382 82.8206 59.1481 84.2827 60.4114C84.7413 60.8131 85.196 61.2706 85.6601 61.7763L88.1862 64.5106C92.2295 68.888 92.6141 72.9598 89.3188 76.7199L89.3053 76.7276ZM86.6968 73.8792C87.1995 73.2907 87.4428 72.6525 87.398 71.9451C87.3532 71.2377 87.1372 70.5735 86.752 69.9874C86.3726 69.38 85.8376 68.7178 85.1605 67.993L82.6191 65.2317C82.1702 64.753 81.7386 64.3361 81.3376 63.9734C81.163 63.822 80.996 63.6842 80.8367 63.5599C80.2783 63.1075 79.7117 62.8921 79.1293 62.9001C78.547 62.9081 77.9948 63.2207 77.4652 63.8244C77.0665 64.2824 76.8274 64.7395 76.7208 65.2109C76.6142 65.6824 76.6825 66.1799 76.8757 66.6782C77.0766 67.19 77.3371 67.6502 77.638 68.0875C77.9524 68.5172 78.3609 69.0187 78.8691 69.571L81.3971 72.3399C81.8 72.7373 82.1798 73.0942 82.5444 73.424C82.7631 73.6219 82.9953 73.8121 83.2141 74.01C83.7802 74.4759 84.389 74.7032 85.0001 74.7146C85.6324 74.732 86.1864 74.4541 86.6968 73.8792Z" fill="white"/>
</g>
</svg>
