<svg width="190" height="128" viewBox="0 0 190 128" fill="none" xmlns="http://www.w3.org/2000/svg">
<path d="M183.573 20.0107L143.083 2.18629C137.299 -0.36006 127.697 -0.730461 121.751 1.32976L7.70808 40.937C1.73872 42.9972 -1.43106 49.5714 0.628142 55.5438L23.0942 120.29C25.1534 126.24 31.7244 129.434 37.6937 127.374L151.736 87.7666C157.706 85.7064 164.994 79.4563 167.955 73.8775L188.709 34.7795C191.671 29.2007 189.357 22.557 183.596 20.0338L183.573 20.0107ZM168.557 44.5945C163.097 46.4927 157.104 43.5991 155.207 38.1129C153.31 32.6267 156.202 26.6544 161.662 24.7562C167.122 22.858 173.115 25.7515 175.012 31.2146C176.909 36.7008 174.017 42.6732 168.534 44.5714L168.557 44.5945Z" fill="#E4CDEC"/>
<path d="M65.4072 69.6405C59.1881 71.8335 54.9268 69.5705 52.6234 62.8982C52.324 62.0117 52.0475 61.0785 51.8402 60.0519L50.7116 55.1994C49.6981 50.86 49.7672 47.3139 50.9189 44.5143C52.0706 41.7148 54.4892 39.6617 58.1976 38.3786C61.9061 37.0721 64.8314 37.2121 66.9965 38.7519C68.655 39.9417 69.9679 41.9481 70.9354 44.771C71.2118 45.6108 71.4882 46.4974 71.7185 47.4539L72.9393 52.8664C73.9298 57.1358 73.8376 60.6585 72.6859 63.4814C71.5342 66.3043 69.1157 68.334 65.4533 69.6405H65.4072ZM64.1173 63.9947C65.1999 63.5981 65.9831 62.9448 66.4438 61.9883C66.9044 61.0318 67.1117 60.0053 67.0426 58.9555C66.9966 57.8823 66.7893 56.6225 66.4438 55.176L65.1999 49.6936C64.9696 48.807 64.7392 47.9905 64.4859 47.2439C64.3477 46.894 64.2095 46.544 64.0943 46.1941C63.7027 45.1909 63.1269 44.491 62.3437 44.0711C61.5606 43.6511 60.6162 43.6511 59.5105 44.0477C58.6583 44.351 57.9903 44.771 57.5296 45.3075C57.0459 45.8675 56.7695 46.5207 56.6774 47.3372C56.5852 48.1538 56.5622 48.947 56.6774 49.7402C56.7695 50.5334 56.9307 51.4899 57.1841 52.5864L58.4279 58.0689C58.6583 58.9555 58.8886 59.772 59.142 60.5186C59.2572 60.8918 59.3954 61.2418 59.5105 61.6151C59.9021 62.6416 60.524 63.3881 61.3302 63.8547C62.1364 64.3213 63.0808 64.368 64.1634 63.9947H64.1173ZM77.9607 95L80.0107 31.1463L86.1377 29L84.1338 92.8303L77.9837 95H77.9607ZM105.809 85.6214C99.5895 87.8144 95.3052 85.5281 93.0018 78.7625C92.7254 77.9226 92.449 77.0127 92.2187 76.0329L91.113 71.157C90.0995 66.8176 90.1687 63.2715 91.3204 60.4719C92.4721 57.6723 94.9136 55.6193 98.599 54.3128C102.308 53.0064 105.233 53.1463 107.375 54.7328C109.01 55.9226 110.3 57.8823 111.268 60.6119C111.567 61.4751 111.821 62.4083 112.051 63.4114L113.318 68.8473C115.345 77.5493 112.857 83.1485 105.832 85.6214H105.809ZM104.519 79.9756C105.601 79.579 106.385 78.9258 106.845 77.9692C107.306 77.0127 107.513 75.9862 107.444 74.9364C107.398 73.8632 107.191 72.6034 106.845 71.157L105.578 65.6744C105.348 64.7179 105.095 63.8547 104.841 63.0848C104.726 62.7582 104.611 62.4549 104.496 62.175C104.104 61.1718 103.528 60.4719 102.768 60.0519C102.008 59.632 101.064 59.632 99.935 60.0286C99.0828 60.3319 98.4378 60.7519 97.9541 61.2885C97.4704 61.825 97.194 62.5249 97.0788 63.3181C96.9637 64.1347 96.9637 64.9279 97.0328 65.7211C97.1249 66.5143 97.2861 67.4708 97.5395 68.5673L98.7833 74.0498C99.0137 74.8664 99.244 75.6129 99.4743 76.3128C99.6125 76.7327 99.7738 77.1527 99.912 77.5726C100.304 78.5992 100.925 79.3457 101.709 79.8123C102.515 80.3022 103.436 80.3489 104.519 79.9756Z" fill="white"/>
</svg>
