<svg width="171" height="182" viewBox="0 0 171 182" fill="none" xmlns="http://www.w3.org/2000/svg">
<path d="M42.3111 41.246L37.5829 70.2068C36.9074 74.3441 38.2654 80.57 40.5782 84.0445L84.997 150.666C87.3137 154.155 92.0669 155.096 95.564 152.78L133.453 127.579C136.935 125.267 137.896 120.517 135.58 117.028L91.1609 50.4065C88.8442 46.9172 83.6147 43.2786 79.536 42.3059L50.9516 35.4901C46.8729 34.5175 42.9865 37.1087 42.3221 41.2273L42.3111 41.246ZM60.6111 46.794C62.739 49.9835 61.875 54.3122 58.6635 56.4434C55.4519 58.5746 51.1318 57.712 49.0039 54.5225C46.876 51.333 47.74 47.0042 50.9367 44.8769C54.1482 42.7457 58.4683 43.6083 60.6001 46.8127L60.6111 46.794Z" fill="#B4A4CC"/>
<path d="M93.7175 108.906C96.1802 112.585 95.4373 115.735 91.519 118.348C90.9973 118.691 90.4416 119.027 89.814 119.333L86.8723 120.878C84.2425 122.262 81.9422 122.81 79.9414 122.529C77.9407 122.247 76.2084 121.017 74.7557 118.82C73.288 116.626 72.8857 114.7 73.5148 113.034C74.0034 111.757 75.0772 110.567 76.7361 109.466C77.2316 109.146 77.7572 108.818 78.3357 108.509L81.6233 106.81C84.2118 105.453 86.5009 104.924 88.5167 105.201C90.5325 105.479 92.2498 106.713 93.7097 108.876L93.7175 108.906ZM90.291 110.689C89.8527 110.051 89.2992 109.651 88.6043 109.511C87.9094 109.371 87.212 109.408 86.5461 109.628C85.8613 109.837 85.0831 110.183 84.2078 110.649L80.879 112.374C80.3456 112.672 79.8574 112.959 79.4183 113.248C79.2157 113.396 79.0131 113.545 78.8067 113.678C78.2252 114.101 77.8704 114.592 77.7313 115.172C77.5922 115.751 77.7512 116.365 78.1934 117.018C78.5326 117.522 78.9162 117.886 79.3401 118.096C79.7829 118.317 80.251 118.388 80.7935 118.311C81.336 118.235 81.8518 118.117 82.3443 117.91C82.8407 117.717 83.4309 117.453 84.0959 117.105L87.4248 115.379C87.9581 115.081 88.4463 114.795 88.8855 114.506C89.107 114.368 89.3096 114.22 89.5311 114.083C90.1276 113.656 90.5047 113.127 90.67 112.525C90.8354 111.923 90.7065 111.3 90.2832 110.659L90.291 110.689ZM107.97 96.5035L66.4146 105.84L63.9975 102.214L105.53 92.8509L107.966 96.4885L107.97 96.5035ZM97.2273 79.9576C99.69 83.6363 98.9359 86.8049 94.9574 89.4337C94.4619 89.7538 93.9213 90.0856 93.3277 90.3992L90.367 91.9331C87.7372 93.3175 85.4369 93.8651 83.4362 93.5838C81.4354 93.3025 79.6992 92.0575 78.2354 89.8788C76.7677 87.685 76.3654 85.7589 77.0285 84.1005C77.5209 82.838 78.5685 81.6715 80.1672 80.5862C80.6738 80.2471 81.2334 79.9264 81.8421 79.6089L85.1369 77.8766C90.4117 75.104 94.4443 75.7864 97.2234 79.9427L97.2273 79.9576ZM93.8008 81.74C93.3625 81.1022 92.809 80.702 92.1141 80.5622C91.4192 80.4224 90.7218 80.459 90.0559 80.6794C89.3711 80.8887 88.5929 81.2341 87.7176 81.7005L84.3926 83.4407C83.8141 83.7503 83.2997 84.0594 82.8455 84.3528C82.6541 84.4823 82.4777 84.6079 82.3164 84.7296C81.7349 85.1519 81.3802 85.6434 81.2372 86.208C81.0942 86.7726 81.2533 87.3868 81.6993 88.0547C82.0386 88.5583 82.4182 88.9076 82.846 89.1326C83.2737 89.3575 83.772 89.4204 84.3033 89.3627C84.8497 89.3012 85.3616 89.1686 85.8619 88.9911C86.3583 88.7987 86.9485 88.534 87.6135 88.1859L90.9423 86.4608C91.4305 86.1745 91.8735 85.8999 92.2864 85.6331C92.5342 85.4731 92.778 85.298 93.0258 85.138C93.6223 84.7117 93.9994 84.1825 94.1686 83.5951C94.3491 82.9889 94.224 82.3818 93.8008 81.74Z" fill="white"/>
</svg>
