<svg width="55" height="72" viewBox="0 0 55 72" fill="none" xmlns="http://www.w3.org/2000/svg">
<g opacity="0.4">
<path d="M7.06376 8.55581L3.51504 23.1344C3.00807 25.2171 3.45432 28.4454 4.49523 30.3087L24.4903 66.0397C25.5326 67.9107 27.916 68.579 29.7881 67.5368L50.0752 56.1917C51.9396 55.151 52.6163 52.7671 51.574 50.8961L31.579 15.1652C30.5367 13.2941 28.017 11.2314 25.9783 10.5736L11.6906 5.964C9.65187 5.3062 7.57072 6.47315 7.07012 8.54672L7.06376 8.55581ZM16.1642 12.1108C17.1222 13.8215 16.5116 15.9943 14.7923 16.9535C13.0729 17.9127 10.9069 17.3014 9.94894 15.5907C8.99098 13.8801 9.60153 11.7072 11.3132 10.7494C13.0326 9.79026 15.1986 10.4015 16.1579 12.1199L16.1642 12.1108Z" fill="#F39200"/>
<path d="M30.6506 45.0683C31.752 47.0149 31.2493 48.5722 29.1579 49.7374C28.8797 49.89 28.5845 50.0377 28.254 50.1679L26.7006 50.8328C25.3117 51.4288 24.1235 51.6162 23.1202 51.3978C22.117 51.1794 21.2879 50.4936 20.6393 49.3314C19.9829 48.1706 19.856 47.1855 20.2417 46.3711C20.5406 45.7466 21.1326 45.1891 22.0178 44.6985C22.2819 44.5564 22.5615 44.4114 22.8673 44.2778L24.6022 43.5488C25.969 42.9647 27.1509 42.7863 28.1619 43.0034C29.1729 43.2204 29.9942 43.9075 30.6478 45.053L30.6506 45.0683ZM28.8419 45.8342C28.6452 45.4962 28.3805 45.2735 28.0338 45.1764C27.687 45.0794 27.332 45.0711 26.9855 45.1565C26.6299 45.2355 26.2215 45.3795 25.759 45.5808L24.0021 46.3215C23.7197 46.4511 23.4607 46.5765 23.2264 46.7054C23.1178 46.7723 23.0091 46.8392 22.8991 46.8985C22.5874 47.0888 22.3878 47.3226 22.2941 47.609C22.2004 47.8955 22.2564 48.2108 22.4545 48.5565C22.6063 48.8231 22.7862 49.0212 22.9927 49.1432C23.2084 49.2715 23.4429 49.325 23.7211 49.3073C23.9992 49.2896 24.2655 49.2502 24.5235 49.1647C24.7829 49.0868 25.0927 48.9762 25.4439 48.8265L27.2008 48.0858C27.4831 47.9562 27.7421 47.8308 27.9764 47.7019C28.0942 47.6413 28.2029 47.5744 28.3207 47.5138C28.6402 47.3221 28.8526 47.0701 28.9605 46.7732C29.0685 46.4763 29.028 46.1582 28.8391 45.8188L28.8419 45.8342ZM38.3737 39.3712L16.9295 42.4767L15.8491 40.5581L37.2827 37.4386L38.3723 39.3635L38.3737 39.3712ZM33.589 30.6287C34.6904 32.5752 34.1812 34.1416 32.0587 35.3123C31.7947 35.4545 31.5073 35.6008 31.1937 35.7359L29.6312 36.3945C28.2423 36.9905 27.054 37.1779 26.0508 36.9595C25.0476 36.7411 24.2171 36.0476 23.5621 34.8945C22.9057 33.7337 22.7788 32.7486 23.1814 31.9391C23.4817 31.3223 24.0595 30.7753 24.9136 30.2902C25.184 30.139 25.4806 29.999 25.8019 29.8625L27.5419 29.1168C30.3274 27.9235 32.3448 28.4218 33.5876 30.621L33.589 30.6287ZM31.7802 31.3945C31.5835 31.0565 31.3189 30.8338 30.9722 30.7367C30.6254 30.6397 30.2703 30.6314 29.9239 30.7168C29.5682 30.7959 29.1599 30.9399 28.6974 31.1411L26.9418 31.8896C26.6361 32.0232 26.3629 32.1591 26.1208 32.2894C26.0186 32.3472 25.9241 32.4037 25.8375 32.4588C25.5257 32.6491 25.3262 32.8829 25.2311 33.1617C25.136 33.4404 25.192 33.7558 25.3915 34.1091C25.5433 34.3757 25.7219 34.5661 25.9297 34.6958C26.1376 34.8255 26.3878 34.8762 26.6595 34.8676C26.939 34.8576 27.2038 34.8105 27.4646 34.7404C27.724 34.6625 28.0339 34.5519 28.385 34.4022L30.1419 33.6615C30.4009 33.5361 30.6365 33.4148 30.8565 33.2964C30.9886 33.2253 31.1192 33.1465 31.2513 33.0755C31.5708 32.8838 31.7832 32.6318 31.8925 32.3426C32.0082 32.0443 31.9691 31.7339 31.7802 31.3945Z" fill="white"/>
</g>
</svg>
