<svg width="72" height="78" viewBox="0 0 72 78" fill="none" xmlns="http://www.w3.org/2000/svg">
<path d="M39.0122 5.46983L26.5632 13.8455C24.7848 15.042 22.9381 17.7273 22.4508 19.8053L13.1321 59.6759C12.6406 61.7605 13.9506 63.8608 16.0358 64.3531L38.6683 69.6496C40.7469 70.1377 42.8537 68.8332 43.3452 66.7486L52.6639 26.878C53.1554 24.7934 52.6849 21.5713 51.6225 19.7111L44.1769 6.67456C43.1145 4.81435 40.7906 4.27331 39.023 5.4674L39.0122 5.46983ZM43.3374 14.2305C42.8917 16.1399 40.976 17.3331 39.0594 16.8825C37.1429 16.4319 35.9551 14.5202 36.4008 12.6109C36.8465 10.7016 38.7622 9.50831 40.6721 9.95473C42.5887 10.4054 43.7764 12.317 43.3266 14.233L43.3374 14.2305Z" fill="#E99CBE"/>
<path d="M31.8192 48.3389C31.3205 50.5192 29.8993 51.3305 27.5691 50.7813C27.2607 50.7065 26.9431 50.6165 26.6113 50.4899L25.0157 49.9338C23.5881 49.4378 22.5841 48.7751 21.9903 47.9375C21.3966 47.0999 21.2465 46.0345 21.5509 44.7388C21.8486 43.4389 22.419 42.6258 23.2528 42.2842C23.8945 42.0245 24.7077 42.0118 25.6922 42.2462C25.9831 42.3192 26.2873 42.4007 26.6033 42.508L28.3761 43.1392C29.7795 43.6292 30.7726 44.2942 31.373 45.136C31.9735 45.9779 32.1169 47.0391 31.8275 48.3257L31.8192 48.3389ZM29.9669 47.6853C30.0495 47.3031 30.0042 46.9602 29.8135 46.6547C29.6228 46.3493 29.3662 46.1038 29.0527 45.9333C28.7367 45.752 28.338 45.583 27.8607 45.4199L26.0637 44.7826C25.7678 44.6879 25.492 44.606 25.232 44.5433C25.1067 44.5194 24.9813 44.4956 24.8601 44.4652C24.5016 44.3956 24.1965 44.4338 23.9342 44.5822C23.6719 44.7306 23.5007 45.0013 23.4139 45.3901C23.3464 45.6894 23.3457 45.957 23.416 46.1863C23.4888 46.4265 23.626 46.6241 23.8433 46.7985C24.0607 46.9729 24.2839 47.1233 24.5322 47.2341C24.7762 47.3515 25.0797 47.4786 25.4399 47.6048L27.237 48.242C27.5329 48.3367 27.8087 48.4187 28.0686 48.4814C28.1965 48.516 28.3219 48.5399 28.4497 48.5745C28.815 48.6483 29.1417 48.6054 29.4216 48.4589C29.7015 48.3123 29.8861 48.0501 29.9753 47.6721L29.9669 47.6853ZM41.3642 49.3373L23.4317 37.175L23.9271 35.0296L41.8612 47.1744L41.3684 49.3307L41.3642 49.3373ZM43.7237 39.6545C43.225 41.8347 41.793 42.6484 39.4361 42.0823C39.1452 42.0093 38.8343 41.9236 38.5117 41.812L36.9135 41.2451C35.4859 40.749 34.4819 40.0864 33.8882 39.2488C33.2944 38.4112 33.1485 37.3391 33.442 36.0459C33.7398 34.746 34.3101 33.9328 35.1532 33.6063C35.7907 33.3532 36.5863 33.3387 37.5441 33.5561C37.8458 33.6268 38.1593 33.7233 38.4886 33.8391L40.2765 34.4613C43.1384 35.4577 44.2925 37.1857 43.7279 39.6479L43.7237 39.6545ZM41.8715 39.0008C41.954 38.6186 41.9087 38.2757 41.7181 37.9702C41.5274 37.6648 41.2707 37.4193 40.9572 37.2488C40.6412 37.0675 40.2425 36.8985 39.7653 36.7354L37.964 36.1047C37.6481 35.9974 37.3547 35.9135 37.0881 35.8466C36.9736 35.8204 36.8658 35.7984 36.7646 35.7807C36.4061 35.7111 36.1011 35.7493 35.8429 35.8911C35.5848 36.0329 35.4136 36.3036 35.3227 36.699C35.2551 36.9983 35.2586 37.2593 35.3247 37.4952C35.3909 37.7311 35.5414 37.9372 35.7479 38.114C35.9611 38.2951 36.1885 38.4388 36.4284 38.5628C36.6724 38.6802 36.9759 38.8074 37.3361 38.9335L39.1332 39.5707C39.409 39.6527 39.6647 39.722 39.9071 39.7829C40.0526 39.8194 40.2022 39.8493 40.3476 39.8858C40.7128 39.9596 41.0396 39.9167 41.3153 39.7767C41.6019 39.6345 41.7823 39.3788 41.8715 39.0008Z" fill="white"/>
</svg>
