<svg width="143" height="143" viewBox="0 0 143 143" fill="none" xmlns="http://www.w3.org/2000/svg">
<path d="M11.8072 51.0974L21.9294 77.1402C23.3754 80.8606 27.4982 85.3142 31.0738 87.0496L99.6929 120.292C103.279 122.038 107.63 120.517 109.378 116.931L128.26 77.9819C129.997 74.4054 128.49 70.0442 124.904 68.2984L56.2846 35.0561C52.6986 33.3103 46.6525 32.8467 42.8384 34.0156L16.1089 42.2079C12.2948 43.3768 10.3611 47.3771 11.8072 51.0768L11.8072 51.0974ZM29.4922 46.8245C32.7785 48.4153 34.1624 52.3838 32.5596 55.6812C30.9568 58.9786 26.998 60.3542 23.7117 58.7634C20.4254 57.1725 19.0414 53.2041 20.6339 49.917C22.2367 46.6196 26.1956 45.244 29.4922 46.8452L29.4922 46.8245Z" fill="#D1D1D1"/>
<path d="M86.7436 81.7053C90.5004 83.5033 91.3929 86.417 89.4417 90.4255C89.1795 90.9552 88.8862 91.4954 88.5204 92.0464L86.8573 94.7176C85.372 97.1081 83.7575 98.6609 81.9928 99.3969C80.2282 100.133 78.2312 99.9695 76.002 98.8864C73.7624 97.8137 72.5185 96.4448 72.2392 94.7902C72.0299 93.5181 72.3396 92.0358 73.1682 90.343C73.4199 89.8445 73.6923 89.3252 74.0166 88.7951L75.8887 85.8327C77.353 83.4837 78.9674 81.9516 80.7424 81.2053C82.5174 80.4589 84.504 80.6326 86.7231 81.6847L86.7436 81.7053ZM84.7983 84.8027C84.1377 84.4964 83.4962 84.4383 82.8633 84.6598C82.2304 84.8812 81.6794 85.2471 81.2414 85.7468C80.7827 86.2466 80.3127 86.9018 79.821 87.7021L77.928 90.706C77.635 91.2048 77.3732 91.6724 77.1529 92.1189C77.0584 92.3369 76.9638 92.5549 76.859 92.7626C76.5858 93.3855 76.5304 93.9553 76.6926 94.4926C76.8548 95.0299 77.2766 95.4516 77.9475 95.7683C78.4635 96.0134 78.9494 96.1242 79.3948 96.0903C79.8609 96.0563 80.276 95.888 80.6818 95.5645C81.0876 95.241 81.4522 94.897 81.755 94.4913C82.0681 94.0959 82.4232 93.5968 82.7998 92.9939L84.6928 89.99C84.9858 89.4912 85.2476 89.0236 85.4678 88.5771C85.5831 88.3589 85.6777 88.1409 85.793 87.9228C86.0765 87.2895 86.1322 86.6783 85.9805 86.1099C85.8288 85.5415 85.4279 85.0989 84.7777 84.7822L84.7983 84.8027ZM92.4627 64.7736L63.0306 92.3747L59.3357 90.597L88.7369 62.9857L92.4524 64.7633L92.4627 64.7736ZM75.8376 56.5253C79.5944 58.3233 80.4867 61.2577 78.4939 65.3079C78.2422 65.8064 77.9593 66.3362 77.6246 66.8767L75.9408 69.548C74.4555 71.9385 72.841 73.4913 71.0763 74.2273C69.3117 74.9632 67.3045 74.7897 65.0751 73.7273C62.8355 72.6545 61.5916 71.2856 61.3434 69.6205C61.1444 68.3587 61.4435 66.9075 62.2305 65.2564C62.4823 64.7372 62.7859 64.2073 63.131 63.6564L64.9929 60.663C67.9739 55.8715 71.5854 54.4819 75.8273 56.515L75.8376 56.5253ZM73.8923 59.6227C73.2317 59.3164 72.5902 59.2583 71.9573 59.4798C71.3244 59.7012 70.7733 60.0671 70.3353 60.5668C69.8766 61.0666 69.4066 61.7218 68.9149 62.5221L67.0323 65.5363C66.708 66.0664 66.4356 66.565 66.2049 67.022C66.1105 67.2193 66.0265 67.4062 65.9529 67.5827C65.6798 68.2056 65.6244 68.7753 65.7763 69.3023C65.9282 69.8293 66.35 70.2511 67.0311 70.578C67.5472 70.8231 68.0228 70.9236 68.4784 70.9C68.9341 70.8764 69.3701 70.6873 69.7758 70.3845C70.1919 70.0712 70.5461 69.717 70.8695 69.3319C71.1826 68.9365 71.5378 68.4373 71.9143 67.8345L73.8073 64.8305C74.069 64.363 74.2996 63.9267 74.5093 63.5113C74.6351 63.262 74.7506 63.0025 74.8765 62.7532C75.16 62.1199 75.2157 61.5088 75.0743 60.9506C74.9331 60.3718 74.5424 59.9395 73.8923 59.6227Z" fill="white"/>
</svg>
