<svg width="26" height="22" viewBox="0 0 26 22" fill="none" xmlns="http://www.w3.org/2000/svg">
<g id="logos:chrome-web-store" clip-path="url(#clip0_93_418)">
<path id="Vector" d="M25.2539 0H0V20.2081C0 21.1585 0.770888 21.931 1.72291 21.931H23.5327C24.483 21.931 25.2556 21.1602 25.2556 20.2081L25.2539 0Z" fill="#F1F3F4" fill-opacity="0.5"/>
<path id="Vector_2" d="M0 0H25.2539V11.0237H0V0Z" fill="#E8EAED" fill-opacity="0.2"/>
<path id="Vector_3" d="M15.4963 4.70844H9.75766C9.60688 4.70853 9.45755 4.6789 9.31822 4.62124C9.17889 4.56358 9.0523 4.47902 8.94567 4.37239C8.83905 4.26577 8.75449 4.13917 8.69682 3.99984C8.63916 3.86052 8.60953 3.71119 8.60962 3.5604C8.60953 3.40961 8.63916 3.26028 8.69682 3.12095C8.75449 2.98163 8.83905 2.85503 8.94567 2.74841C9.0523 2.64178 9.17889 2.55722 9.31822 2.49956C9.45755 2.4419 9.60688 2.41226 9.75766 2.41235H15.4963C15.6471 2.41226 15.7964 2.4419 15.9358 2.49956C16.0751 2.55722 16.2017 2.64178 16.3083 2.74841C16.4149 2.85503 16.4995 2.98163 16.5571 3.12095C16.6148 3.26028 16.6444 3.40961 16.6444 3.5604C16.6444 4.19347 16.131 4.70844 15.4963 4.70844Z" fill="white"/>
<g id="Mask group">
<mask id="mask0_93_418" style="mask-type:luminance" maskUnits="userSpaceOnUse" x="0" y="0" width="26" height="22">
<g id="Group">
<path id="Vector_4" d="M25.2539 0H0V20.2081C0 21.1585 0.770888 21.931 1.72291 21.931H23.5327C24.483 21.931 25.2556 21.1602 25.2556 20.2081L25.2539 0Z" fill="white"/>
</g>
</mask>
<g mask="url(#mask0_93_418)">
<g id="Group_2">
<g id="Group_3">
<path id="Vector_5" d="M3.18311 14.7537L4.6867 19.3409L7.90659 22.9346L12.6267 14.7553L22.0704 14.7537C20.1847 11.4939 16.6624 9.30249 12.6267 9.30249C8.59116 9.30249 5.06879 11.4939 3.18311 14.7537Z" fill="url(#paint0_linear_93_418)"/>
<path id="Vector_6" d="M12.6252 31.1155L15.845 27.5203L17.3469 22.9346H7.905L3.18319 14.7537C1.30411 18.0168 1.16619 22.1654 3.18486 25.661C5.20186 29.1568 8.86195 31.1123 12.6251 31.1156" fill="url(#paint1_linear_93_418)"/>
<path id="Vector_7" d="M22.0703 14.7554H12.6267L17.3485 22.9346L12.6267 31.1156C16.3916 31.1123 20.0518 29.1568 22.0688 25.6611C24.0873 22.1654 23.9495 18.0185 22.0703 14.7554Z" fill="url(#paint2_linear_93_418)"/>
<path id="Vector_8" d="M12.6267 25.6611C15.6373 25.6611 18.0779 23.2197 18.0779 20.2082C18.0779 17.1967 15.6373 14.7554 12.6267 14.7554C9.61611 14.7554 7.17554 17.1967 7.17554 20.2082C7.17554 23.2197 9.61611 25.6611 12.6267 25.6611Z" fill="#F1F3F4"/>
<path id="Vector_9" d="M12.6269 24.6393C15.0732 24.6393 17.0563 22.6554 17.0563 20.2082C17.0563 17.761 15.0732 15.7771 12.6269 15.7771C10.1806 15.7771 8.19751 17.761 8.19751 20.2082C8.19751 22.6554 10.1806 24.6393 12.6269 24.6393Z" fill="#1A73E8"/>
</g>
</g>
</g>
</g>
<path id="Vector_10" opacity="0.1" d="M0 11.0237H25.2539V11.1665H0V11.0237ZM0 10.8792H25.2539V11.022H0V10.8792Z" fill="#BDC1C6"/>
</g>
<defs>
<linearGradient id="paint0_linear_93_418" x1="3.18311" y1="690.908" x2="1891.91" y2="690.908" gradientUnits="userSpaceOnUse">
<stop stop-color="#D93025"/>
<stop offset="1" stop-color="#EA4335"/>
</linearGradient>
<linearGradient id="paint1_linear_93_418" x1="1172.71" y1="1582.66" x2="248.922" y2="-17.3124" gradientUnits="userSpaceOnUse">
<stop stop-color="#1E8E3E"/>
<stop offset="1" stop-color="#34A853"/>
</linearGradient>
<linearGradient id="paint2_linear_93_418" x1="665.811" y1="12.5631" x2="-147.487" y2="1421.2" gradientUnits="userSpaceOnUse">
<stop stop-color="#FBBC04"/>
<stop offset="1" stop-color="#FCC934"/>
</linearGradient>
<clipPath id="clip0_93_418">
<rect width="25.2556" height="22" fill="white"/>
</clipPath>
</defs>
</svg>
