<svg width="23" height="23" viewBox="0 0 23 23" fill="none" xmlns="http://www.w3.org/2000/svg">
<g id="featured 1" clip-path="url(#clip0_183_324)">
<path id="Vector" d="M19.1666 9.58333C19.1666 5.3475 15.7358 1.91667 11.4999 1.91667C7.26409 1.91667 3.83325 5.3475 3.83325 9.58333C3.83325 11.5288 4.56159 13.2921 5.74992 14.6433V22.0417L11.4999 20.125L17.2499 22.0417V14.6433C18.4383 13.2921 19.1666 11.5288 19.1666 9.58333ZM11.4999 3.83333C14.672 3.83333 17.2499 6.41125 17.2499 9.58333C17.2499 12.7554 14.672 15.3333 11.4999 15.3333C8.32784 15.3333 5.74992 12.7554 5.74992 9.58333C5.74992 6.41125 8.32784 3.83333 11.4999 3.83333ZM11.4999 18.2083L7.66659 19.1858V16.215C8.79742 16.8667 10.1008 17.25 11.4999 17.25C12.8991 17.25 14.2024 16.8667 15.3333 16.215V19.1858L11.4999 18.2083ZM8.62492 9.58333C8.62492 7.9925 9.90909 6.70833 11.4999 6.70833C13.0908 6.70833 14.3749 7.9925 14.3749 9.58333C14.3749 11.1742 13.0908 12.4583 11.4999 12.4583C9.90909 12.4583 8.62492 11.1742 8.62492 9.58333Z" fill="#146C2E"/>
</g>
<defs>
<clipPath id="clip0_183_324">
<rect width="23" height="23" fill="white"/>
</clipPath>
</defs>
</svg>
