<svg width="26" height="22" viewBox="0 0 26 22" fill="none" xmlns="http://www.w3.org/2000/svg">
<g id="logos:chrome-web-store" clip-path="url(#clip0_51_198)">
<path id="Vector" d="M25.2539 0H0V20.2081C0 21.1585 0.770888 21.931 1.72291 21.931H23.5327C24.483 21.931 25.2556 21.1602 25.2556 20.2081L25.2539 0Z" fill="#F1F3F4" fill-opacity="0.5"/>
<path id="Vector_2" d="M0 0H25.2539V11.0237H0V0Z" fill="#E8EAED" fill-opacity="0.2"/>
<path id="Vector_3" d="M15.4963 4.70849H9.75764C9.60685 4.70858 9.45752 4.67895 9.3182 4.62128C9.17887 4.56362 9.05227 4.47906 8.94565 4.37244C8.83902 4.26581 8.75446 4.13922 8.6968 3.99989C8.63914 3.86056 8.60951 3.71123 8.6096 3.56044C8.60951 3.40966 8.63914 3.26033 8.6968 3.121C8.75446 2.98167 8.83902 2.85508 8.94565 2.74845C9.05227 2.64183 9.17887 2.55727 9.3182 2.4996C9.45752 2.44194 9.60685 2.41231 9.75764 2.4124H15.4963C15.6471 2.41231 15.7964 2.44194 15.9357 2.4996C16.0751 2.55727 16.2017 2.64183 16.3083 2.74845C16.4149 2.85508 16.4995 2.98167 16.5571 3.121C16.6148 3.26033 16.6444 3.40966 16.6443 3.56044C16.6443 4.19351 16.1309 4.70849 15.4963 4.70849Z" fill="white"/>
<g id="Mask group">
<mask id="mask0_51_198" style="mask-type:luminance" maskUnits="userSpaceOnUse" x="0" y="0" width="26" height="22">
<g id="Group">
<path id="Vector_4" d="M25.2539 0H0V20.2081C0 21.1585 0.770888 21.931 1.72291 21.931H23.5327C24.483 21.931 25.2556 21.1602 25.2556 20.2081L25.2539 0Z" fill="white"/>
</g>
</mask>
<g mask="url(#mask0_51_198)">
<g id="Group_2">
<g id="Group_3">
<path id="Vector_5" d="M3.18329 14.7536L4.68688 19.3409L7.90678 22.9346L12.6269 14.7553L22.0705 14.7536C20.1848 11.4939 16.6626 9.30244 12.6269 9.30244C8.59134 9.30244 5.06897 11.4939 3.18329 14.7536Z" fill="url(#paint0_linear_51_198)"/>
<path id="Vector_6" d="M12.6253 31.1155L15.8451 27.5202L17.347 22.9346H7.9051L3.18329 14.7536C1.30421 18.0167 1.16629 22.1653 3.18496 25.661C5.20196 29.1567 8.86205 31.1122 12.6252 31.1156" fill="url(#paint1_linear_51_198)"/>
<path id="Vector_7" d="M22.0705 14.7553H12.6269L17.3487 22.9346L12.6269 31.1155C16.3918 31.1122 20.052 29.1567 22.069 25.661C24.0875 22.1653 23.9497 18.0184 22.0705 14.7553Z" fill="url(#paint2_linear_51_198)"/>
<path id="Vector_8" d="M12.6269 25.661C15.6375 25.661 18.0781 23.2197 18.0781 20.2081C18.0781 17.1966 15.6375 14.7553 12.6269 14.7553C9.61631 14.7553 7.17574 17.1966 7.17574 20.2081C7.17574 23.2197 9.61631 25.661 12.6269 25.661Z" fill="#F1F3F4"/>
<path id="Vector_9" d="M12.6269 24.6392C15.0732 24.6392 17.0563 22.6553 17.0563 20.2081C17.0563 17.7609 15.0732 15.7771 12.6269 15.7771C10.1806 15.7771 8.19751 17.7609 8.19751 20.2081C8.19751 22.6553 10.1806 24.6392 12.6269 24.6392Z" fill="#1A73E8"/>
</g>
</g>
</g>
</g>
<path id="Vector_10" opacity="0.1" d="M0 11.0237H25.2539V11.1665H0V11.0237ZM0 10.8792H25.2539V11.022H0V10.8792Z" fill="#BDC1C6"/>
</g>
<defs>
<linearGradient id="paint0_linear_51_198" x1="3.18329" y1="690.908" x2="1891.91" y2="690.908" gradientUnits="userSpaceOnUse">
<stop stop-color="#D93025"/>
<stop offset="1" stop-color="#EA4335"/>
</linearGradient>
<linearGradient id="paint1_linear_51_198" x1="1172.71" y1="1582.66" x2="248.922" y2="-17.3124" gradientUnits="userSpaceOnUse">
<stop stop-color="#1E8E3E"/>
<stop offset="1" stop-color="#34A853"/>
</linearGradient>
<linearGradient id="paint2_linear_51_198" x1="665.811" y1="12.563" x2="-147.487" y2="1421.2" gradientUnits="userSpaceOnUse">
<stop stop-color="#FBBC04"/>
<stop offset="1" stop-color="#FCC934"/>
</linearGradient>
<clipPath id="clip0_51_198">
<rect width="25.2556" height="22" fill="white"/>
</clipPath>
</defs>
</svg>
