<svg width="21" height="19" viewBox="0 0 21 19" fill="none" xmlns="http://www.w3.org/2000/svg">
<g id="logos:chrome-web-store" clip-path="url(#clip0_226_339)">
<path id="Vector" d="M20.6623 0.5H0V17.0339C0 17.8115 0.630727 18.4436 1.40965 18.4436H19.254C20.0316 18.4436 20.6637 17.8128 20.6637 17.0339L20.6623 0.5Z" fill="#F1F3F4"/>
<path id="Vector_2" d="M0 0.5H20.6623V9.51937H0V0.5Z" fill="#E8EAED"/>
<path id="Vector_3" d="M12.679 4.3524H7.98374C7.86037 4.35248 7.73819 4.32823 7.6242 4.28106C7.5102 4.23388 7.40662 4.16469 7.31939 4.07745C7.23215 3.99022 7.16296 3.88664 7.11578 3.77264C7.0686 3.65865 7.04436 3.53647 7.04443 3.4131C7.04436 3.28972 7.0686 3.16754 7.11578 3.05355C7.16296 2.93955 7.23215 2.83598 7.31939 2.74874C7.40662 2.6615 7.5102 2.59231 7.6242 2.54513C7.73819 2.49796 7.86037 2.47371 7.98374 2.47379H12.679C12.8024 2.47371 12.9245 2.49796 13.0385 2.54513C13.1525 2.59231 13.2561 2.6615 13.3434 2.74874C13.4306 2.83598 13.4998 2.93955 13.547 3.05355C13.5941 3.16754 13.6184 3.28972 13.6183 3.4131C13.6183 3.93106 13.1983 4.3524 12.679 4.3524Z" fill="white"/>
<g id="Mask group">
<mask id="mask0_226_339" style="mask-type:luminance" maskUnits="userSpaceOnUse" x="0" y="0" width="21" height="19">
<g id="Group">
<path id="Vector_4" d="M20.6623 0.5H0V17.0339C0 17.8115 0.630727 18.4436 1.40965 18.4436H19.254C20.0316 18.4436 20.6637 17.8128 20.6637 17.0339L20.6623 0.5Z" fill="white"/>
</g>
</mask>
<g mask="url(#mask0_226_339)">
<g id="Group_2">
<g id="Group_3">
<path id="Vector_5" d="M2.60449 12.5711L3.83471 16.3243L6.46917 19.2646L10.3311 12.5725L18.0577 12.5711C16.5149 9.90406 13.633 8.11108 10.3311 8.11108C7.02926 8.11108 4.14733 9.90406 2.60449 12.5711Z" fill="url(#paint0_linear_226_339)"/>
<path id="Vector_6" d="M10.3296 25.9581L12.964 23.0165L14.1928 19.2646H6.46757L2.60427 12.5711C1.06684 15.2409 0.954002 18.6353 2.60564 21.4953C4.25591 24.3555 7.25053 25.9555 10.3295 25.9582" fill="url(#paint1_linear_226_339)"/>
<path id="Vector_7" d="M18.0577 12.5725H10.3311L14.1944 19.2646L10.3311 25.9581C13.4114 25.9555 16.4061 24.3555 18.0564 21.4953C19.7079 18.6353 19.5952 15.2423 18.0577 12.5725Z" fill="url(#paint2_linear_226_339)"/>
<path id="Vector_8" d="M10.3307 21.4953C12.7939 21.4953 14.7907 19.4979 14.7907 17.0339C14.7907 14.57 12.7939 12.5725 10.3307 12.5725C7.86744 12.5725 5.87061 14.57 5.87061 17.0339C5.87061 19.4979 7.86744 21.4953 10.3307 21.4953Z" fill="#F1F3F4"/>
<path id="Vector_9" d="M10.3311 20.6593C12.3326 20.6593 13.9551 19.0362 13.9551 17.0339C13.9551 15.0316 12.3326 13.4085 10.3311 13.4085C8.32958 13.4085 6.70703 15.0316 6.70703 17.0339C6.70703 19.0362 8.32958 20.6593 10.3311 20.6593Z" fill="#1A73E8"/>
</g>
</g>
</g>
</g>
<path id="Vector_10" opacity="0.1" d="M0 9.51937H20.6623V9.63625H0V9.51937ZM0 9.40112H20.6623V9.518H0V9.40112Z" fill="#BDC1C6"/>
</g>
<defs>
<linearGradient id="paint0_linear_226_339" x1="2.60449" y1="565.788" x2="1547.92" y2="565.788" gradientUnits="userSpaceOnUse">
<stop stop-color="#D93025"/>
<stop offset="1" stop-color="#EA4335"/>
</linearGradient>
<linearGradient id="paint1_linear_226_339" x1="959.488" y1="1295.4" x2="203.663" y2="-13.6648" gradientUnits="userSpaceOnUse">
<stop stop-color="#1E8E3E"/>
<stop offset="1" stop-color="#34A853"/>
</linearGradient>
<linearGradient id="paint2_linear_226_339" x1="544.754" y1="10.7788" x2="-120.671" y2="1163.3" gradientUnits="userSpaceOnUse">
<stop stop-color="#FBBC04"/>
<stop offset="1" stop-color="#FCC934"/>
</linearGradient>
<clipPath id="clip0_226_339">
<rect width="20.6637" height="18" fill="white" transform="translate(0 0.5)"/>
</clipPath>
</defs>
</svg>
