<svg width="29" height="29" viewBox="0 0 29 29" fill="none" xmlns="http://www.w3.org/2000/svg">
<g id="discount">
<g id="Vector">
<path d="M15.331 24.8311L5 14.1874V16.3618C5 16.938 5.22161 17.4925 5.6226 17.8948L13.8431 26.364C14.6662 27.212 16.0064 27.212 16.8295 26.364L23.3827 19.6125C24.2058 18.7645 24.2058 17.3838 23.3827 16.5358L15.331 24.8311Z" fill="#0B57D0"/>
<path d="M13.8431 20.928C14.2547 21.352 14.7928 21.5695 15.331 21.5695C15.8692 21.5695 16.4074 21.352 16.8189 20.928L23.3721 14.1766C24.1952 13.3285 24.1952 11.9478 23.3721 11.0998L15.1516 2.63057C14.7612 2.22831 14.223 2 13.6637 2H7.11052C5.94974 2 5 2.97847 5 4.17439V10.9259C5 11.5021 5.22161 12.0565 5.6226 12.4588L13.8431 20.928ZM7.11052 4.17439H13.6637L21.8842 12.6436L15.331 19.3951L7.11052 10.9259V4.17439Z" fill="#0B57D0"/>
<path d="M9.48487 7.97956C10.2134 7.97956 10.8039 7.37112 10.8039 6.62057C10.8039 5.87002 10.2134 5.26158 9.48487 5.26158C8.75636 5.26158 8.16579 5.87002 8.16579 6.62057C8.16579 7.37112 8.75636 7.97956 9.48487 7.97956Z" fill="#0B57D0"/>
</g>
</g>
</svg>
