<svg width="29" height="29" viewBox="0 0 29 29" fill="none" xmlns="http://www.w3.org/2000/svg">
<g id="fi-bs-shop">
<path id="Vector" d="M26 12.6705L23.8859 3H5.11408L3.0345 12.3591L3 13.5857C3.00362 14.524 3.32638 15.4331 3.91521 16.1637V23.125C3.91521 23.8875 4.21811 24.6188 4.75728 25.1579C5.29644 25.6971 6.02771 26 6.79021 26H22.2098C22.9723 26 23.7036 25.6971 24.2427 25.1579C24.7819 24.6188 25.0848 23.8875 25.0848 23.125V16.1637C25.6736 15.4331 25.9964 14.524 26 13.5857V12.6705ZM5.875 12.8287L7.41983 5.875H9.40358V9.01067H12.2786V5.875H16.7214V9.01067H19.5964V5.875H21.5802L23.125 12.8287V13.5857C23.1245 13.9322 22.9866 14.2643 22.7415 14.5092C22.4965 14.754 22.1643 14.8917 21.8178 14.892H20.9036C20.5571 14.8917 20.225 14.754 19.9799 14.5092C19.7348 14.2643 19.5969 13.9322 19.5964 13.5857H16.7214C16.7212 13.9321 16.5835 14.2642 16.3386 14.5091C16.0936 14.754 15.7616 14.8917 15.4152 14.892H13.5848C13.2384 14.8917 12.9063 14.754 12.6614 14.5091C12.4165 14.2642 12.2788 13.9321 12.2786 13.5857H9.40358C9.40308 13.9322 9.26516 14.2643 9.0201 14.5092C8.77505 14.754 8.44285 14.8917 8.09642 14.892H7.18217C6.83573 14.8917 6.50354 14.754 6.25848 14.5092C6.01342 14.2643 5.87551 13.9322 5.875 13.5857V12.8287ZM6.79021 23.125V17.7277C6.92054 17.7401 7.048 17.767 7.18217 17.767H8.09642C9.1093 17.7623 10.0855 17.3874 10.8411 16.7128C11.5963 17.3874 12.5722 17.7624 13.5848 17.767H15.4152C16.4241 17.7677 17.399 17.4024 18.1589 16.7387C18.9191 17.4025 19.8944 17.7679 20.9036 17.767H21.8178C21.952 17.767 22.0795 17.7401 22.2098 17.7277V23.125H6.79021Z" fill="#0B57D0"/>
</g>
</svg>
