<svg width="282" height="220" viewBox="0 0 282 220" fill="none" xmlns="http://www.w3.org/2000/svg">
<g filter="url(#filter0_f_93_255)">
<path d="M36.7722 171.068C36.7722 171.068 7.18676 179.891 11.4133 184.022C15.6398 188.152 46.9581 197.742 46.9581 197.742C46.9581 197.742 42.4076 208.557 54.3827 209.26C66.3577 209.964 223.478 209.26 223.478 209.26C223.478 209.26 198.464 190.699 195.463 184.022C192.462 177.344 218.568 178.815 218.568 178.815C218.568 178.815 270.653 169.619 270.998 164.461C271.343 159.304 231.917 137.175 231.917 137.175L36.7722 171.068Z" fill="#CFD3E1"/>
</g>
<path d="M157.833 9.87793L151.007 17.8217L133.763 17.8146V121.435H145.576H157.833V9.87793Z" fill="#2F0F33"/>
<path d="M157.833 9.87793L217.617 29.6634V133.284L157.833 113.499V9.87793Z" fill="#45204D"/>
<path d="M193.547 141.221L133.763 121.442V17.8218L193.547 37.6073V141.221Z" fill="#E4CDEC"/>
<path d="M193.547 141.221L200.457 133.284H217.617V29.6636L198.858 30.1913L193.547 37.6073V141.221Z" fill="#C9ACD3"/>
<path d="M156.72 33.3854C156.72 34.6026 155.91 35.5877 154.903 35.5877C153.895 35.5877 153.085 34.6026 153.085 33.3854C153.085 32.1682 153.895 31.1831 154.903 31.1831C155.91 31.1831 156.72 32.1682 156.72 33.3854Z" fill="#1D001C"/>
<path d="M174.922 38.6837C174.922 39.901 174.112 40.8931 173.105 40.8931C172.098 40.8931 171.288 39.908 171.288 38.6837C171.288 37.4595 172.098 36.4814 173.105 36.4814C174.112 36.4814 174.922 37.4665 174.922 38.6837Z" fill="#1D001C"/>
<path d="M174.922 20.0241C174.922 21.2413 174.112 22.2264 173.105 22.2264C172.098 22.2264 171.288 21.2413 171.288 20.0241C171.288 18.8068 172.098 17.8218 173.105 17.8218C174.112 17.8218 174.922 18.8068 174.922 20.0241Z" fill="#1D001C"/>
<path d="M193.117 25.3224C193.117 26.5397 192.307 27.5247 191.3 27.5247C190.293 27.5247 189.482 26.5397 189.482 25.3224C189.482 24.1052 190.293 23.1201 191.3 23.1201C192.307 23.1201 193.117 24.1052 193.117 25.3224Z" fill="#1D001C"/>
<path d="M154.903 32.4713C154.903 24.3798 156.706 12.151 165.469 15.0077C172.745 17.3859 173.098 30.5927 173.098 38.6842" stroke="#C7B9CB" stroke-width="2.73" stroke-linecap="round" stroke-linejoin="round"/>
<path d="M173.105 19.7496C173.105 11.6581 174.908 -0.570636 183.671 2.28602C190.948 4.65719 191.3 17.871 191.3 25.9625" stroke="#C7B9CB" stroke-width="2.73" stroke-linecap="round" stroke-linejoin="round"/>
<path d="M210.305 67.9048L264.313 82.6243L210.305 97.3368L156.291 82.6243L210.305 67.9048Z" fill="#E6BBF5"/>
<path d="M210.312 97.3365V174.424L191.124 169.189L175.465 164.918L156.291 159.704V82.624L175.465 87.8378L191.124 92.1087L210.312 97.3365Z" fill="#C9ACD3"/>
<path d="M264.313 82.624V159.704L247.118 164.398L231.459 168.661L210.312 174.424V97.3365L231.459 91.581L247.118 87.3171L264.313 82.624Z" fill="#E4CDEC"/>
<path d="M191.124 92.1088V169.189L175.465 164.918V87.8379L191.124 92.1088Z" fill="#E99CBE"/>
<path d="M191.124 92.1088L240.757 76.2073L224.999 71.9082L175.465 87.8379L191.124 92.1088Z" fill="#F290BC"/>
<path d="M247.118 87.3169V164.397L231.459 168.661V91.5808L247.118 87.3169Z" fill="#E99CBE"/>
<path d="M247.118 87.3175L194.322 72.0562L178.663 76.32L231.459 91.5813L247.118 87.3175Z" fill="#F290BC"/>
<path d="M239.222 86.7337C230.98 87.8595 211.827 83.8981 211.017 79.0995C209.699 71.2613 227.507 59.7151 236.348 56.9499C239.44 55.9789 242.314 69.5797 239.757 72.6193C241.518 72.0282 242.61 86.2693 239.215 86.7337H239.222Z" fill="#E99CBE"/>
<path d="M233.537 81.8151C225.295 82.9409 214.144 83.546 213.334 78.7474C212.017 70.9092 227.507 59.7148 236.348 56.9425C239.44 55.9716 239.123 71.3243 236.566 74.3639C238.327 73.7729 236.925 81.3508 233.53 81.8081L233.537 81.8151Z" fill="#F0B7D1"/>
<path d="M212.862 77.9595L224.992 76.123L212.862 80.0633V77.9595Z" fill="#E99CBE"/>
<path d="M212.862 74.455L221.167 70.3389L212.862 76.5588V74.455Z" fill="#E99CBE"/>
<path d="M212.454 76.5377L218.73 74.4761L212.454 78.6414V76.5377Z" fill="#E99CBE"/>
<path d="M212.658 80.0424L220.766 79.0151L214.151 81.5692L212.658 80.0424Z" fill="#E99CBE"/>
<path d="M213.257 80.6753L223.478 81.0271L214.461 81.8785L213.257 80.6753Z" fill="#E99CBE"/>
<path d="M217.469 70.6912C217.469 70.6912 223.774 64.3869 226.19 62.9374C228.606 61.495 235.974 56.9568 236.629 57.6181C237.291 58.2725 237.531 60.7703 237.531 61.101C237.531 61.4317 233.037 63.5285 233.037 63.5285C233.037 63.5285 237.651 62.2127 237.531 62.9374C237.411 63.6622 237.172 71.1486 236.629 71.6059C236.094 72.0633 232.438 73.0483 232.438 73.0483C232.438 73.0483 236.27 74.6244 236.214 75.4828C236.15 76.3342 236.15 79.4371 234.713 80.2814C233.276 81.1328 220.223 81.8716 220.223 81.8716L224.992 80.9358L219.265 80.2885L223.041 78.642L220.766 78.0932L227.275 75.7502L217.469 76.1231L220.442 73.5408L217.011 74.4837L222.442 69.7554L217.469 70.6912Z" fill="#F0B7D1"/>
<path d="M181.382 86.7337C189.624 87.8595 208.777 83.8981 209.587 79.0995C210.904 71.2613 193.096 59.7151 184.256 56.9499C181.164 55.9789 178.29 69.5797 180.847 72.6193C179.086 72.0282 177.994 86.2693 181.389 86.7337H181.382Z" fill="#E99CBE"/>
<path d="M187.067 81.8151C195.308 82.9409 206.459 83.546 207.269 78.7474C208.594 70.9092 193.096 59.7148 184.256 56.9425C181.164 55.9716 181.481 71.3243 184.038 74.3639C182.277 73.7729 183.678 81.3508 187.074 81.8081L187.067 81.8151Z" fill="#F0B7D1"/>
<path d="M207.748 77.9595L195.611 76.123L207.748 80.0633V77.9595Z" fill="#E99CBE"/>
<path d="M207.748 74.455L199.443 70.3389L207.748 76.5588V74.455Z" fill="#E99CBE"/>
<path d="M208.15 76.5377L201.88 74.4761L208.15 78.6414V76.5377Z" fill="#E99CBE"/>
<path d="M207.953 80.0424L199.845 79.0151L206.452 81.5692L207.953 80.0424Z" fill="#E99CBE"/>
<path d="M207.347 80.6753L197.126 81.0271L206.142 81.8785L207.347 80.6753Z" fill="#E99CBE"/>
<path d="M203.134 70.6912C203.134 70.6912 196.83 64.3869 194.414 62.9374C191.998 61.495 184.629 56.9568 183.974 57.6181C183.312 58.2725 183.073 60.7703 183.073 61.101C183.073 61.4317 187.567 63.5285 187.567 63.5285C187.567 63.5285 182.953 62.2127 183.073 62.9374C183.192 63.6622 183.432 71.1486 183.974 71.6059C184.51 72.0633 188.166 73.0483 188.166 73.0483C188.166 73.0483 184.334 74.6244 184.39 75.4828C184.446 76.3342 184.446 79.4371 185.883 80.2814C187.32 81.1328 200.373 81.8716 200.373 81.8716L195.604 80.9358L201.331 80.2885L197.562 78.642L199.838 78.0932L193.329 75.7502L203.134 76.1231L200.162 73.5408L203.592 74.4837L198.161 69.7554L203.134 70.6912Z" fill="#F0B7D1"/>
<path d="M213.468 81.7519C212.207 83.145 208.037 82.6244 206.875 81.7519C205.712 80.8724 206.191 73.0834 206.875 72.1054C207.551 71.1274 212.496 71.3736 213.468 72.1054C214.44 72.8371 214.729 80.3517 213.468 81.7519Z" fill="#E1B9CB"/>
<path d="M213.13 79.972C212.003 81.1259 208.27 80.6967 207.227 79.972C206.184 79.2473 206.621 72.8022 207.227 71.993C207.833 71.1839 212.264 71.3879 213.13 71.993C213.996 72.5981 214.257 78.8181 213.13 79.972Z" fill="#F0B7D1"/>
<path d="M212.193 77.3332C211.432 78.1143 208.903 77.8258 208.199 77.3332C207.494 76.8407 207.79 72.4783 208.199 71.9366C208.607 71.3948 211.608 71.5285 212.193 71.9366C212.778 72.3447 212.954 76.5522 212.193 77.3332Z" fill="#F0B7D1"/>
<path d="M156.291 184.022H20.9651L34.9055 45.6074H140.843L156.291 184.022Z" fill="#F39200"/>
<path d="M156.291 184.022H20.9651L34.9055 45.6074L48.1767 132.116L78.3046 122.336L61.3563 150.171L156.291 184.022Z" fill="#F07F00"/>
<path d="M74.5078 55.5769C74.5078 57.2374 73.1554 58.5883 71.4929 58.5883C69.8305 58.5883 68.478 57.2444 68.478 55.5769C68.478 53.9093 69.8235 52.5654 71.4929 52.5654C73.1624 52.5654 74.5078 53.9093 74.5078 55.5769Z" fill="#A0213B"/>
<path d="M108.771 55.5769C108.771 57.2374 107.425 58.5883 105.756 58.5883C104.086 58.5883 102.741 57.2444 102.741 55.5769C102.741 53.9093 104.086 52.5654 105.756 52.5654C107.425 52.5654 108.771 53.9093 108.771 55.5769Z" fill="#A0213B"/>
<path d="M105.763 55.5771V32.0695C105.763 13.262 71.5 10.2575 71.5 32.0695V55.5771" stroke="#FFDE00" stroke-width="3.21" stroke-linecap="round" stroke-linejoin="round"/>
<path d="M193.85 168.584C193.85 170.526 192.279 172.095 190.335 172.095L86.7223 173.474C86.7223 173.474 83.0664 170.519 83.0664 168.577V102.825C83.0664 100.883 84.6373 99.314 86.5814 99.314H190.335C192.279 99.314 195.463 102.797 195.463 102.797L193.85 168.577V168.584Z" fill="#B692C3"/>
<path d="M89.3781 101.917H193.132C195.076 101.917 196.647 103.493 196.647 105.428V171.18C196.647 173.122 195.069 174.691 193.132 174.691H89.3781C87.4409 174.691 85.863 173.115 85.863 171.18V105.428C85.863 103.486 87.4409 101.917 89.3781 101.917Z" fill="#E4CDEC"/>
<path d="M59.7009 193.421V198.551C59.7009 200.493 61.462 202.062 63.6386 202.062H214.63C216.807 202.062 218.568 200.486 218.568 198.551V193.421H59.7009Z" fill="#E7E7E7"/>
<path d="M193.273 108.539H89.2373V170.147H193.273V108.539Z" fill="#B4A4CC"/>
<path d="M90.7166 169.105V108.539H89.2373V170.14H193.273V169.105H90.7166Z" fill="#9084A3"/>
<path d="M142.738 105.723C142.738 106.54 142.075 107.201 141.258 107.201C140.441 107.201 139.772 106.54 139.772 105.723C139.772 104.907 140.434 104.239 141.258 104.239C142.082 104.239 142.738 104.9 142.738 105.723Z" fill="#B4A4CC"/>
<g style="mix-blend-mode:soft-light">
<path d="M89.2373 159.74V146.294L152.543 108.539H174.183L89.2373 159.74Z" fill="white"/>
</g>
<g style="mix-blend-mode:soft-light">
<path d="M89.2373 168.951V164.152L181.537 108.539H188.243L89.2373 168.951Z" fill="white"/>
</g>
<path d="M218.568 193.421H59.7009L87.4831 174.691H195.026L218.568 193.421Z" fill="white"/>
<path d="M89.2583 177.344L72.5918 188.581H206.593L192.462 177.344H89.2583Z" fill="#E3E3E3"/>
<path d="M159.841 125.995L147.514 120.577C145.753 119.803 142.829 119.684 141.019 120.317L106.298 132.356C104.481 132.982 103.516 134.98 104.143 136.795L110.983 156.475C111.609 158.284 114.561 159.177 114.561 159.177L150.148 146.59C151.965 145.963 154.184 144.057 155.086 142.368L161.405 130.484C162.306 128.788 161.602 126.769 159.848 126.002L159.841 125.995ZM155.269 133.467C153.607 134.044 151.782 133.165 151.205 131.504C150.627 129.844 151.508 128.021 153.17 127.444C154.832 126.867 156.657 127.747 157.235 129.414C157.812 131.075 156.932 132.897 155.269 133.474V133.467Z" fill="#C681A0"/>
<path d="M161.602 126.684L149.275 121.267C147.514 120.493 144.59 120.38 142.78 121.006L108.059 133.045C106.242 133.671 105.277 135.669 105.904 137.485L112.744 157.165C113.37 158.973 115.371 159.944 117.188 159.318L151.909 147.279C153.726 146.653 155.945 144.753 156.847 143.057L163.166 131.173C164.067 129.478 163.363 127.458 161.609 126.691L161.602 126.684ZM157.03 134.157C155.368 134.734 153.543 133.854 152.966 132.187C152.388 130.519 153.269 128.704 154.931 128.127C156.593 127.55 158.418 128.429 158.996 130.09C159.573 131.757 158.693 133.573 157.023 134.15L157.03 134.157Z" fill="#E99CBE"/>
<path d="M125.691 141.728C123.789 142.389 122.486 141.706 121.781 139.694C121.69 139.427 121.605 139.145 121.542 138.836L121.197 137.372C120.887 136.064 120.908 134.994 121.26 134.15C121.612 133.305 122.352 132.686 123.486 132.299C124.62 131.905 125.515 131.947 126.177 132.412C126.684 132.771 127.086 133.376 127.381 134.227C127.466 134.48 127.55 134.748 127.621 135.036L127.994 136.669C128.297 137.956 128.269 139.019 127.917 139.87C127.565 140.721 126.825 141.334 125.705 141.728H125.691ZM125.296 140.025C125.627 139.905 125.867 139.708 126.008 139.42C126.149 139.131 126.212 138.822 126.191 138.505C126.177 138.181 126.113 137.801 126.008 137.365L125.627 135.712C125.557 135.444 125.487 135.198 125.409 134.973C125.367 134.867 125.325 134.762 125.289 134.656C125.17 134.354 124.993 134.143 124.754 134.016C124.514 133.889 124.226 133.889 123.887 134.009C123.627 134.1 123.423 134.227 123.282 134.389C123.134 134.558 123.049 134.755 123.021 135.001C122.993 135.247 122.986 135.487 123.021 135.726C123.049 135.965 123.099 136.254 123.176 136.584L123.556 138.238C123.627 138.505 123.697 138.751 123.775 138.976C123.81 139.089 123.852 139.195 123.887 139.307C124.007 139.617 124.197 139.842 124.444 139.983C124.691 140.123 124.979 140.137 125.31 140.025H125.296ZM129.53 149.376L130.157 130.118L132.031 129.471L131.418 148.721L129.537 149.376H129.53ZM138.046 146.547C136.144 147.209 134.834 146.519 134.13 144.479C134.045 144.225 133.961 143.951 133.89 143.655L133.552 142.185C133.242 140.876 133.263 139.807 133.615 138.962C133.968 138.118 134.714 137.499 135.841 137.105C136.976 136.711 137.87 136.753 138.525 137.232C139.025 137.59 139.42 138.181 139.716 139.005C139.807 139.265 139.885 139.546 139.955 139.849L140.343 141.488C140.963 144.113 140.202 145.801 138.053 146.547H138.046ZM137.652 144.845C137.983 144.725 138.222 144.528 138.363 144.239C138.504 143.951 138.568 143.641 138.546 143.325C138.532 143.001 138.469 142.621 138.363 142.185L137.976 140.531C137.905 140.243 137.828 139.983 137.75 139.75C137.715 139.652 137.68 139.56 137.645 139.476C137.525 139.173 137.349 138.962 137.116 138.836C136.884 138.709 136.595 138.709 136.25 138.829C135.989 138.92 135.792 139.047 135.644 139.209C135.496 139.371 135.412 139.582 135.377 139.821C135.341 140.067 135.341 140.306 135.362 140.546C135.391 140.785 135.44 141.073 135.517 141.404L135.898 143.057C135.968 143.304 136.039 143.529 136.109 143.74C136.151 143.867 136.201 143.993 136.243 144.12C136.363 144.429 136.553 144.655 136.792 144.795C137.039 144.943 137.321 144.957 137.652 144.845Z" fill="white"/>
<path d="M88.8322 152.974L81.5142 157.242L85.7373 164.467L93.0553 160.199L88.8322 152.974Z" fill="#DADADA"/>
<path d="M140.646 128.739C133.094 115.82 116.491 111.465 103.551 119.008C90.618 126.551 86.2576 143.142 93.809 156.053C101.36 168.971 117.97 173.327 130.904 165.784C143.837 158.241 148.197 141.65 140.646 128.739ZM97.9862 153.625C91.7802 143.008 95.3657 129.379 105.988 123.18C116.618 116.981 130.263 120.563 136.468 131.18C142.674 141.798 139.089 155.427 128.459 161.625C117.83 167.824 104.185 164.243 97.9791 153.625H97.9862Z" fill="#CDCDCD"/>
<path d="M140.469 127.698C132.524 114.104 115.054 109.523 101.445 117.46C87.8354 125.397 83.2496 142.846 91.1955 156.44C99.1413 170.034 116.611 174.614 130.22 166.678C143.829 158.741 148.415 141.291 140.469 127.698ZM95.591 153.879C89.0611 142.713 92.8297 128.366 104.016 121.844C115.195 115.321 129.558 119.085 136.088 130.259C142.618 141.432 138.849 155.772 127.663 162.294C116.484 168.817 102.121 165.052 95.591 153.879Z" fill="white"/>
<path d="M91.745 149.525L84.427 153.793L90.1703 163.618L97.4884 159.35L91.745 149.525Z" fill="white"/>
<path d="M43.3093 184.374C40.4353 179.462 45.7184 176.374 45.7184 176.374L51.4664 186.203C51.4664 186.203 46.3735 189.608 43.3093 184.374Z" fill="#A8A8A8"/>
<path d="M80.7583 155.934L45.7134 176.373L51.4567 186.198L86.5017 165.759L80.7583 155.934Z" fill="#D1D1D1"/>
<defs>
<filter id="filter0_f_93_255" x="0.6" y="126.775" width="280.8" height="93.1975" filterUnits="userSpaceOnUse" color-interpolation-filters="sRGB">
<feFlood flood-opacity="0" result="BackgroundImageFix"/>
<feBlend mode="normal" in="SourceGraphic" in2="BackgroundImageFix" result="shape"/>
<feGaussianBlur stdDeviation="5.2" result="effect1_foregroundBlur_93_255"/>
</filter>
</defs>
</svg>
