<svg width="39" height="39" viewBox="0 0 39 39" fill="none" xmlns="http://www.w3.org/2000/svg">
<g id="Layer_1" clip-path="url(#clip0_93_242)">
<path id="Vector" d="M30.9912 24.5571C30.8381 24.7853 30.7069 25.059 30.5921 25.367C30.4773 25.6749 30.3844 26.02 30.3078 26.3878C30.2313 26.7556 30.1739 27.1463 30.1384 27.5484C30.1001 27.9504 30.081 28.3639 30.081 28.7774C30.081 29.1908 30.1001 29.6043 30.1384 30.0064C30.1766 30.4084 30.234 30.7991 30.3078 31.1669C30.3844 31.5348 30.4773 31.8798 30.5921 32.1878C30.7069 32.4957 30.8381 32.7723 30.9912 32.9976C31.1415 33.2257 31.3137 33.4225 31.4968 33.5935C31.68 33.7646 31.8795 33.9072 32.0873 34.0184C32.295 34.1325 32.5137 34.218 32.7351 34.2751C32.9565 34.3321 33.1833 34.3606 33.4102 34.3606C33.6371 34.3606 33.864 34.3321 34.0854 34.2751C34.3068 34.218 34.5254 34.1325 34.7332 34.0184C34.9409 33.9044 35.1405 33.7618 35.3236 33.5935C35.5067 33.4253 35.6789 33.2257 35.8293 32.9976C35.9823 32.7695 36.1135 32.4957 36.2283 32.1849C36.3431 31.8741 36.4361 31.5319 36.5126 31.1641C36.5892 30.7962 36.6466 30.4056 36.6821 30.0035C36.7204 29.6014 36.7395 29.188 36.7395 28.7745C36.7395 28.361 36.7204 27.9476 36.6821 27.5455C36.6438 27.1434 36.5864 26.7528 36.5126 26.385C36.4388 26.0171 36.3431 25.6721 36.2283 25.3641C36.1135 25.0562 35.9823 24.7796 35.8293 24.5514C35.6789 24.3233 35.5067 24.1266 35.3236 23.9555C35.1377 23.7844 34.9409 23.6418 34.7332 23.5306C34.5254 23.4165 34.3068 23.331 34.0854 23.274C33.864 23.2169 33.6371 23.1884 33.4102 23.1884C33.1833 23.1884 32.9565 23.2169 32.7351 23.274C32.5137 23.331 32.295 23.4165 32.0873 23.5306C31.8795 23.6447 31.68 23.7872 31.4968 23.9555C31.3137 24.1266 31.1415 24.3233 30.9912 24.5514V24.5571ZM8.01703 14.42C8.1701 14.1919 8.3013 13.9182 8.41611 13.6074C8.53091 13.2994 8.62384 12.9544 8.70038 12.5865C8.77691 12.2187 8.83432 11.828 8.86985 11.426C8.90812 11.0239 8.92725 10.6104 8.92725 10.197C8.92725 9.7835 8.90812 9.37004 8.86985 8.96797C8.83158 8.56591 8.77418 8.17526 8.70038 7.80741C8.62384 7.43957 8.53091 7.09454 8.41611 6.78658C8.3013 6.47861 8.1701 6.20202 8.01703 5.9739C7.87216 5.75718 7.70816 5.56613 7.53322 5.39789C7.35555 5.23251 7.16421 5.08993 6.96194 4.97587C6.75967 4.86181 6.5492 4.77342 6.33053 4.71068C6.11459 4.6508 5.89045 4.61658 5.66632 4.61088C5.44218 4.60518 5.21804 4.63084 4.9939 4.68502C4.7725 4.7392 4.55383 4.82189 4.34336 4.93595C4.13288 5.05001 3.92788 5.19544 3.73654 5.37223C3.54521 5.54902 3.3648 5.76003 3.20353 6.00241C3.04773 6.23624 2.91106 6.50998 2.79352 6.82079C2.67599 7.12876 2.57759 7.47379 2.50105 7.83593C2.42178 8.20092 2.36438 8.58587 2.32611 8.98223C2.28785 9.37859 2.26871 9.78636 2.26598 10.197C2.26598 10.6047 2.28511 11.0125 2.32338 11.4117C2.36165 11.8109 2.42178 12.1959 2.49832 12.558C2.57759 12.923 2.67325 13.2652 2.79079 13.5732C2.90833 13.8811 3.045 14.1577 3.2008 14.3915C3.36207 14.6339 3.54247 14.8421 3.73381 15.0189C3.92515 15.1957 4.12742 15.3411 4.33789 15.4551C4.54836 15.5692 4.76703 15.6547 4.98844 15.7061C5.20984 15.7574 5.43671 15.7831 5.65812 15.7802C5.88225 15.7745 6.10639 15.7431 6.32233 15.6833C6.541 15.6234 6.75147 15.535 6.95374 15.4181C7.15601 15.304 7.34735 15.1614 7.52502 14.9961C7.70269 14.8278 7.86669 14.6368 8.01156 14.42H8.01703ZM36.8652 0L33.536 4.87607L30.2067 9.75214L26.8774 14.6282L23.5482 19.5043L20.2189 24.3803L16.8896 29.2564L13.5603 34.1325L10.2311 39.0086H29.4823C29.3238 38.9458 29.168 38.8831 29.0149 38.8118C28.8619 38.7434 28.7088 38.6692 28.5585 38.5922C28.4081 38.5152 28.2605 38.4354 28.1129 38.3499C27.968 38.2643 27.8232 38.1759 27.681 38.0847C27.5389 37.9906 27.3995 37.8965 27.2656 37.7938C27.1289 37.694 26.995 37.5885 26.8665 37.4801C26.7353 37.3718 26.6068 37.2606 26.4838 37.1437C26.3581 37.0268 26.2378 36.907 26.1203 36.7815C25.6583 36.2968 25.2538 35.7464 24.9039 35.1476C24.554 34.5488 24.2616 33.8987 24.0265 33.2171C23.7914 32.5356 23.6138 31.8199 23.4935 31.0899C23.3732 30.3571 23.3131 29.61 23.3076 28.8572C23.3049 28.1073 23.3595 27.3545 23.4771 26.6188C23.5919 25.8831 23.7668 25.1588 24.0046 24.4687C24.2397 23.7787 24.5376 23.1171 24.893 22.5041C25.2511 21.891 25.6693 21.3235 26.1503 20.8188C26.5658 20.3825 27.0168 19.9976 27.4952 19.6583C27.9735 19.3189 28.4819 19.0281 29.0122 18.7857C29.5397 18.5433 30.0892 18.3466 30.6522 18.1983C31.2126 18.05 31.7866 17.9474 32.3661 17.8932C32.9455 17.8361 33.5278 17.8276 34.1072 17.8647C34.6867 17.9017 35.2607 17.9844 35.8265 18.1099C36.3896 18.2382 36.9418 18.4093 37.4748 18.626C38.0078 18.8427 38.5189 19.1051 39.0055 19.4102V0H36.8707H36.8652ZM9.57506 0C10.7614 0.473349 11.7782 1.15771 12.6255 1.99605C13.4729 2.83154 14.1535 3.82101 14.6619 4.89888C15.173 5.97675 15.512 7.14872 15.6842 8.3492C15.8564 9.54968 15.8591 10.7815 15.6924 11.982C15.5257 13.1825 15.1922 14.3545 14.6892 15.438C14.1863 16.5216 13.5139 17.5139 12.672 18.3551C11.8301 19.1963 10.8188 19.8892 9.64067 20.3711C8.46257 20.853 7.11228 21.1239 5.59525 21.1239C5.31644 21.1239 5.04037 21.1154 4.7725 21.0983C4.50463 21.0812 4.24222 21.0526 3.98528 21.0184C3.72834 20.9842 3.4796 20.9414 3.2336 20.8901C2.98759 20.8388 2.74979 20.7789 2.51745 20.7133C2.28511 20.6477 2.05824 20.5707 1.83684 20.4909C1.61543 20.4111 1.3995 20.3198 1.18902 20.2229C0.978553 20.1259 0.776283 20.0232 0.576745 19.9149C0.377208 19.8065 0.18587 19.6896 0 19.567V39.0057H2.12658L5.45584 34.1296L8.78511 29.2536L12.1144 24.3775L15.4437 19.5014L18.7729 14.6254L22.1022 9.74929L25.4315 4.87322L28.758 0H9.57506Z" fill="black"/>
</g>
<defs>
<clipPath id="clip0_93_242">
<rect width="39" height="39" fill="white"/>
</clipPath>
</defs>
</svg>
