<svg width="23" height="23" viewBox="0 0 23 23" fill="none" xmlns="http://www.w3.org/2000/svg">
<path d="M17.1718 13.7234C16.9236 13.964 16.8096 14.3118 16.8661 14.653L17.7181 19.368C17.79 19.7676 17.6213 20.1721 17.2868 20.403C16.9591 20.6426 16.5231 20.6713 16.1656 20.4797L11.9211 18.2659C11.7736 18.1873 11.6097 18.1452 11.442 18.1404H11.1823C11.0922 18.1538 11.004 18.1826 10.9235 18.2266L6.6781 20.4509C6.46822 20.5563 6.23056 20.5937 5.99768 20.5563C5.43035 20.449 5.05181 19.9085 5.14477 19.3383L5.99768 14.6233C6.05422 14.2793 5.94018 13.9295 5.69197 13.6851L2.23143 10.3309C1.94202 10.0501 1.84139 9.62847 1.97364 9.24801C2.10206 8.86851 2.42981 8.59155 2.8256 8.52926L7.58852 7.8383C7.95077 7.80093 8.26893 7.58051 8.43185 7.25468L10.5306 2.95176C10.5804 2.85593 10.6446 2.76776 10.7223 2.69301L10.8085 2.62593C10.8536 2.57609 10.9053 2.53489 10.9628 2.50134L11.0673 2.46301L11.2302 2.39593H11.6336C11.994 2.4333 12.3112 2.64893 12.477 2.97093L14.6035 7.25468C14.7568 7.56805 15.0549 7.78559 15.3989 7.8383L20.1618 8.52926C20.5643 8.58676 20.9007 8.86468 21.0339 9.24801C21.1595 9.6323 21.0512 10.054 20.756 10.3309L17.1718 13.7234Z" fill="#FCC12A"/>
</svg>
