<svg width="23" height="23" viewBox="0 0 23 23" fill="none" xmlns="http://www.w3.org/2000/svg">
<g id="verified 1">
<path id="Vector" d="M22.0416 11.4904L19.7033 8.81667L20.0291 5.28042L16.5695 4.49458L14.7583 1.4375L11.4999 2.83667L8.24159 1.4375L6.43034 4.49458L2.97075 5.27083L3.29659 8.81667L0.958252 11.4904L3.29659 14.1642L2.97075 17.71L6.43034 18.4958L8.24159 21.5625L11.4999 20.1537L14.7583 21.5529L16.5695 18.4958L20.0291 17.71L19.7033 14.1737L22.0416 11.4904ZM18.2562 12.9087L17.7195 13.5317L17.7962 14.3462L17.9687 16.215L16.1478 16.6271L15.3428 16.8092L14.9212 17.5183L13.9724 19.1283L12.2666 18.3904L11.4999 18.0646L10.7428 18.3904L9.037 19.1283L8.08825 17.5279L7.66659 16.8187L6.86159 16.6367L5.04075 16.2246L5.21325 14.3462L5.28992 13.5317L4.75325 12.9087L3.517 11.5L4.75325 10.0817L5.28992 9.45875L5.20367 8.63458L5.03117 6.77542L6.852 6.36333L7.657 6.18125L8.07867 5.47208L9.02742 3.86208L10.7333 4.6L11.4999 4.92583L12.257 4.6L13.9628 3.86208L14.9116 5.47208L15.3333 6.18125L16.1383 6.36333L17.9591 6.77542L17.7866 8.64417L17.7099 9.45875L18.2466 10.0817L19.4828 11.4904L18.2562 12.9087Z" fill="#0B57D0"/>
<path id="Vector_2" d="M9.6695 13.1771L7.44617 10.9442L6.02783 12.3721L9.6695 16.0233L16.7037 8.97L15.2853 7.54208L9.6695 13.1771Z" fill="#0B57D0"/>
</g>
</svg>
